<svg width="54" height="44" viewBox="0 0 54 44" fill="none" xmlns="http://www.w3.org/2000/svg">
<path fill-rule="evenodd" clip-rule="evenodd" d="M18.7347 0C19.3433 0 19.8367 0.492487 19.8367 1.1V9.23613C19.8367 9.4811 20.1335 9.60377 20.3071 9.43056L29.1094 0.644532C29.5227 0.23203 30.0833 8.77732e-05 30.6677 0H40.3192C40.6114 4.44421e-05 40.8918 0.116015 41.0984 0.322266L44.4045 3.62227C44.8348 4.05182 44.8348 4.74818 44.4045 5.17773L40.1438 9.43056C39.9702 9.6038 40.0931 9.89997 40.3386 9.9H49.1355C49.4277 9.90004 49.7081 10.016 49.9147 10.2223L53.2209 13.5223C53.6511 13.9519 53.6511 14.6482 53.2209 15.0777L48.8794 19.4111C48.6642 19.6259 48.6642 19.9741 48.8794 20.1889L52.4416 23.7445C53.4395 24.7405 54 26.0914 54 27.5C54 28.9086 53.4394 30.2595 52.4416 31.2555L40.3192 43.3555C39.9059 43.768 39.3453 43.9999 38.7609 44H35.2653C34.6566 44 34.1633 43.5075 34.1633 42.9V34.7639C34.1633 34.5189 33.8665 34.3962 33.6929 34.5695L24.8906 43.3555C24.4773 43.768 23.9167 43.9999 23.3323 44H13.6808C13.3886 44 13.1082 43.884 12.9016 43.6777L9.5955 40.3777C9.16524 39.9482 9.16524 39.2519 9.5955 38.8223L13.8562 34.5695C14.0298 34.3962 13.9069 34.1 13.6614 34.1H4.86447C4.57226 34.1 4.29193 33.984 4.0853 33.7777L0.779177 30.4777C0.348913 30.0482 0.348914 29.3519 0.779177 28.9223L5.12061 24.5889C5.33575 24.3741 5.33575 24.0259 5.12061 23.8111L1.55835 20.2555C0.560555 19.2595 0 17.9086 0 16.5C0 15.0915 0.560554 13.7405 1.55835 12.7445L13.6808 0.644532C14.0941 0.23203 14.6547 8.80509e-05 15.2391 0H18.7347ZM22.1194 9.9C20.658 9.9 19.2557 10.4799 18.2225 11.5113L6.45082 23.2612C6.10377 23.6077 6.34957 24.1999 6.8404 24.2H22.9147C23.4055 24.2001 23.6512 24.7925 23.3043 25.1389L15.2671 33.1612C14.9201 33.5076 15.1658 34.0999 15.6567 34.1H31.8806C33.342 34.1 34.7443 33.5201 35.7775 32.4887L47.5492 20.7389C47.8745 20.4141 47.6789 19.8729 47.2489 19.8065L47.1596 19.8H31.0853C30.5944 19.8 30.3487 19.2076 30.6957 18.8612L38.7329 10.8389C39.0799 10.4924 38.8342 9.90007 38.3433 9.9H22.1194Z" fill="#FF8D30"/>
</svg>
